Coordinates
version=1
nRows=7
nColumns=40
inDegrees=yes

Units are S.I. units (second, meters, Newtons, ...)
If the header above contains a line with 'inDegrees', this indicates whether rotational values are in degrees (yes) or radians (no).

endheader
time	pelvis_tilt	pelvis_list	pelvis_rotation	pelvis_tx	pelvis_ty	pelvis_tz	hip_flexion_r	hip_adduction_r	hip_rotation_r	knee_angle_r	knee_angle_r_beta	ankle_angle_r	subtalar_angle_r	mtp_angle_r	hip_flexion_l	hip_adduction_l	hip_rotation_l	knee_angle_l	knee_angle_l_beta	ankle_angle_l	subtalar_angle_l	mtp_angle_l	lumbar_extension	lumbar_bending	lumbar_rotation	arm_flex_r	arm_add_r	arm_rot_r	elbow_flex_r	pro_sup_r	wrist_flex_r	wrist_dev_r	arm_flex_l	arm_add_l	arm_rot_l	elbow_flex_l	pro_sup_l	wrist_flex_l	wrist_dev_l
      0.93000000	      0.41098571	      8.36976829	    -89.92801483	      0.21510312	      0.95814119	      0.33393317	     23.48794324	     -3.89991909	     -6.07498905	     66.16244701	      1.15475254	     -7.49297029	      0.00000000	      0.00000000	     21.91024086	      4.97757952	      3.89691315	     22.29883528	      0.38918809	      3.07185146	      0.00000000	      0.00000000	      4.22955607	     -1.22457224	     -2.56030538	      0.00000000	      0.00000000	      0.00000000	      0.00000000	      0.00000000	      0.00000000	      0.00000000	      0.00000000	      0.00000000	      0.00000000	      0.00000000	      0.00000000	      0.00000000	      0.00000000
      0.94000000	     -0.01990822	      8.50853657	    -89.92834086	      0.21529383	      0.96052763	      0.34835811	     25.34404986	     -3.46082986	     -6.29209509	     65.37154062	      1.14094862	     -5.45099133	      0.00000000	      0.00000000	     20.55677323	      4.51527657	      4.08385088	     21.30866588	      0.37190638	      3.36007486	     -0.00000000	      0.00000000	      4.32279847	     -0.60516011	     -2.87262333	      0.00000000	      0.00000000	      0.00000000	      0.00000000	      0.00000000	     -0.00000000	      0.00000000	     -0.00000000	     -0.00000000	     -0.00000000	      0.00000000	      0.00000000	      0.00000000	     -0.00000000
      0.95000000	     -0.32172309	      8.73664435	    -89.92946089	      0.21535429	      0.96246372	      0.36271620	     27.19284415	     -3.16908715	     -6.56931307	     64.16404579	      1.11987386	     -4.33162123	     -0.00000000	     -0.00000000	     19.32596167	      4.12322516	      3.89259520	     20.33032239	      0.35483106	      3.72704099	     -0.00000000	      0.00000000	      4.51810164	     -0.20276637	     -3.13812612	     -0.00000000	      0.00000000	     -0.00000000	      0.00000000	      0.00000000	     -0.00000000	      0.00000000	      0.00000000	      0.00000000	      0.00000000	      0.00000000	      0.00000000	      0.00000000	     -0.00000000
      0.96000000	     -0.72042273	      8.64744549	    -89.92737667	      0.21540810	      0.96452274	      0.37719260	     28.51121027	     -2.73409478	     -6.86495055	     62.55239424	      1.09174523	     -2.21286450	      0.00000000	      0.00000000	     17.68930816	      3.70083164	      4.18744116	     19.25486079	      0.33606072	      3.86123665	      0.00000000	      0.00000000	      4.30850314	      0.36490818	     -3.40737660	      0.00000000	      0.00000000	      0.00000000	      0.00000000	      0.00000000	      0.00000000	      0.00000000	      0.00000000	      0.00000000	      0.00000000	      0.00000000	      0.00000000	      0.00000000	      0.00000000
      0.97000000	     -1.00959281	      8.65260427	    -89.92589924	      0.21530847	      0.96609183	      0.39171788	     29.78221082	     -2.40602850	     -7.20670485	     60.49525350	      1.05584136	     -1.06386197	      0.00000000	      0.00000000	     16.16262268	      3.35335481	      4.27875401	     18.18982247	      0.31747229	      4.06924566	      0.00000000	      0.00000000	      4.24280148	      0.74766319	     -3.63406576	      0.00000000	      0.00000000	      0.00000000	      0.00000000	      0.00000000	     -0.00000000	     -0.00000000	     -0.00000000	     -0.00000000	      0.00000000	      0.00000000	      0.00000000	     -0.00000000	      0.00000000
      0.98000000	     -1.18168458	      8.58238258	    -89.92409581	      0.21533070	      0.96730778	      0.40623139	     30.84882434	     -2.21010358	     -7.55443692	     58.10223606	      1.01407532	     -0.25213538	      0.00000000	      0.00000000	     14.56966794	      3.13393601	      4.24440776	     17.12488268	      0.29888559	      4.28138893	      0.00000000	      0.00000000	      4.06831025	      1.02667583	     -3.82585508	      0.00000000	      0.00000000	      0.00000000	      0.00000000	      0.00000000	      0.00000000	      0.00000000	      0.00000000	      0.00000000	      0.00000000	      0.00000000	      0.00000000	      0.00000000	      0.00000000
      0.99000000	     -1.30408485	      8.48812763	    -89.92140819	      0.21522126	      0.96811833	      0.42082533	     31.72943207	     -2.04293256	     -7.94185190	     55.32861056	      0.96566642	      0.36229576	      0.00000000	      0.00000000	     12.95205299	      2.96232150	      4.23489921	     16.07437327	      0.28055074	      4.48847170	      0.00000000	      0.00000000	      3.87278527	      1.21530275	     -3.98350432	      0.00000000	      0.00000000	      0.00000000	      0.00000000	      0.00000000	      0.00000000	      0.00000000	      0.00000000	      0.00000000	      0.00000000	      0.00000000	      0.00000000	      0.00000000	      0.00000000
